<svg viewBox="0 0 1020 300" xmlns="http://www.w3.org/2000/svg" role="img" aria-labelledby="title">
<title>Gen AI Coaching — Light Background Lockup</title>
<rect width="1020" height="300" rx="22" fill="#FFFFFF"/>
<g transform="translate(130,150)">
  <circle r="89" fill="none" stroke="#0A0A0A" stroke-opacity="0.06" stroke-width="18"/>
  <circle r="78" fill="none" stroke="#0A0A0A" stroke-opacity="0.08" stroke-width="1"/>
  <g fill="none" stroke="#0A0A0A" stroke-linecap="round" stroke-linejoin="round">
    <path d="M -63.5 -36.8 A72 72 0 0 1 -12 -71" stroke-width="4.8"/>
    <path d="M 12 -71 A72 72 0 0 1 63.5 -36.8" stroke-width="4.8"/>
    <path d="M 70 -24 A72 72 0 0 1 70 24" stroke-width="4.8"/>
    <path d="M 63.5 36.8 A72 72 0 0 1 12 71" stroke-width="4.8"/>
    <path d="M -12 71 A72 72 0 0 1 -63.5 36.8" stroke-width="4.8"/>
    <path d="M -70 24 A72 72 0 0 1 -70 -24" stroke-width="4.8"/>
    <path d="M -70 -1.2 H -47.5" stroke-width="4.8"/>
    <path d="M 47.5 -1.2 H 70" stroke-width="4.8"/>
    <path d="M -49 -28.5 A56 56 0 0 1 -9 -55.2" stroke-width="4.2" opacity="0.95"/>
    <path d="M 9 -55.2 A56 56 0 0 1 49 -28.5" stroke-width="4.2" opacity="0.95"/>
    <path d="M 54.2 -18.5 A56 56 0 0 1 54.2 18.8" stroke-width="4.2" opacity="0.95"/>
    <path d="M 49 28.5 A56 56 0 0 1 9 55.2" stroke-width="4.2" opacity="0.95"/>
    <path d="M -9 55.2 A56 56 0 0 1 -49 28.5" stroke-width="4.2" opacity="0.95"/>
    <path d="M -54.2 18.8 A56 56 0 0 1 -54.2 -18.5" stroke-width="4.2" opacity="0.95"/>
    <path d="M -1.2 -71 V -55.2" stroke-width="4.2"/>
    <path d="M -1.2 55.2 V 71" stroke-width="4.8"/>
  </g>
  <g stroke-linecap="round" stroke-linejoin="round">
    <path d="M -1.1 -34.5 C -14 -34.5 -26.2 -29.2 -33.1 -19.2 C -36 -15 -36.8 -9.2 -33.5 -3.2 C -36.2 1.2 -35.8 6.8 -32.2 11.5 C -30.2 15.2 -27.1 18.1 -24.5 21.5 C -20.8 26.2 -15.2 30.2 -7.8 32.2 L -1.1 32.2" fill="none" stroke="#0A0A0A" stroke-width="3.1"/>
    <path d="M 1.1 -34.5 C 14 -34.5 26.2 -29.2 33.1 -19.2 C 36 -15 36.8 -9.2 33.5 -3.2 C 36.2 1.2 35.8 6.8 32.2 11.5 C 30.2 15.2 27.1 18.1 24.5 21.5 C 20.8 26.2 15.2 30.2 7.8 32.2 L 1.1 32.2" fill="none" stroke="#0A0A0A" stroke-width="3.1"/>
    <path d="M -1.1 -34.5 V 32.2 M 1.1 -34.5 V 32.2" stroke="#0A0A0A" stroke-width="2.3"/>
    <path d="M -24 -22 C -18 -24 -14 -20 -12 -14 C -10 -8 -14 -2 -19 0" fill="none" stroke="#0A0A0A" stroke-width="2.1"/>
    <path d="M -27 -8 C -22 -6 -20 2 -24 8" fill="none" stroke="#0A0A0A" stroke-width="2.1"/>
    <path d="M -22 6 C -16 8 -12 14 -10 20" fill="none" stroke="#0A0A0A" stroke-width="2.1"/>
    <path d="M -12 -28 C -8 -24 -6 -18 -8 -12" fill="none" stroke="#0A0A0A" stroke-width="1.9"/>
    <path d="M 24 -22 C 18 -24 14 -20 12 -14 C 10 -8 14 -2 19 0" fill="none" stroke="#0A0A0A" stroke-width="2.1"/>
    <path d="M 27 -8 C 22 -6 20 2 24 8" fill="none" stroke="#0A0A0A" stroke-width="2.1"/>
    <path d="M 22 6 C 16 8 12 14 10 20" fill="none" stroke="#0A0A0A" stroke-width="2.1"/>
    <path d="M 12 -28 C 8 -24 6 -18 8 -12" fill="none" stroke="#0A0A0A" stroke-width="1.9"/>
    <path d="M -18 -12 L -6 -18 L 6 -18 L 18 -12 L 14 4 L 6 13 L -6 13 L -14 4 Z" fill="none" stroke="#0A0A0A" stroke-width="1.4" opacity="0.9"/>
    <path d="M -6 -18 L -14 4 M 6 -18 L 14 4 M -18 -12 L 6 13 M 18 -12 L -6 13 M -6 -18 L 6 13 M 6 -18 L -6 13" fill="none" stroke="#0A0A0A" stroke-width="1.15" opacity="0.45"/>
    <g>
      <circle cx="-18" cy="-12" r="4.2" fill="#0A0A0A"/><circle cx="-18" cy="-12" r="1.35" fill="#FFFFFF"/>
      <circle cx="-6" cy="-18" r="4.2" fill="#0A0A0A"/><circle cx="-6" cy="-18" r="1.35" fill="#FFFFFF"/>
      <circle cx="6" cy="-18" r="4.2" fill="#0A0A0A"/><circle cx="6" cy="-18" r="1.35" fill="#FFFFFF"/>
      <circle cx="18" cy="-12" r="4.2" fill="#0A0A0A"/><circle cx="18" cy="-12" r="1.35" fill="#FFFFFF"/>
      <circle cx="14" cy="4" r="4.2" fill="#0A0A0A"/><circle cx="14" cy="4" r="1.35" fill="#FFFFFF"/>
      <circle cx="6" cy="13" r="4.7" fill="#C9A86A"/><circle cx="6" cy="13" r="1.7" fill="#FFFFFF"/>
      <circle cx="-6" cy="13" r="4.7" fill="#C9A86A"/><circle cx="-6" cy="13" r="1.7" fill="#FFFFFF"/>
      <circle cx="-14" cy="4" r="4.2" fill="#0A0A0A"/><circle cx="-14" cy="4" r="1.35" fill="#FFFFFF"/>
    </g>
    <path d="M -7 32.2 C -4 36.5 -1 38 0 38 C 1 38 4 36.5 7 32.2" fill="none" stroke="#0A0A0A" stroke-width="2.3"/>
  </g>
</g>
<g transform="translate(250, 132)">
  <g transform="translate(26, -46)">
    <path d="M -22 -10 L 0 -17 L 22 -10 L 0 -3 Z" fill="none" stroke="#0A0A0A" stroke-width="2.1" stroke-linejoin="round"/>
    <path d="M -22 -10 L 0 -3 L 22 -10" fill="#0A0A0A"/>
    <path d="M -2 -3 L -2 4 C -2 6.2 -0.8 7.8 2 8.4 L 0 8.4 C -3 7.8 -4.2 6.2 -4.2 4 L -4.2 -3 Z" fill="none" stroke="#0A0A0A" stroke-width="1.6" stroke-linecap="round"/>
    <path d="M -18.5 -8.5 L -19.8 4.5" stroke="#0A0A0A" stroke-width="1.3" stroke-linecap="round"/>
    <path d="M -21.5 4.5 L -18 4.5 L -18.6 7.8 L -20.9 7.8 Z" fill="#0A0A0A"/>
  </g>
  <text x="0" y="0" font-family="'Inter', 'SF Pro Display', system-ui, -apple-system, Helvetica, Arial, sans-serif" font-size="72" font-weight="900" letter-spacing="-2.8" fill="#0A0A0A">GEN<tspan dx="10" fill="#0A0A0A">AI</tspan></text>
  <text x="0" y="52" font-family="'Inter', 'SF Pro Display', system-ui, -apple-system, Helvetica, Arial, sans-serif" font-size="50.5" font-weight="900" letter-spacing="-1.6" fill="#0A0A0A">COACHING</text>
  <g transform="translate(0, 76)">
    <rect x="0" y="0" width="332" height="38" rx="19" fill="none" stroke="#0A0A0A" stroke-width="2.2"/>
    <text x="166" y="25.2" text-anchor="middle" font-family="'Inter', system-ui, sans-serif" font-size="13.8" font-weight="700" letter-spacing="2.4" fill="#0A0A0A">UNLOCK YOUR ELITE FUTURE</text>
  </g>
</g>
<g transform="translate(980, 248)" opacity="0.35">
  <path d="M0 -10 C0.7 -2.8 1.4 -1.6 8.8 0 C1.4 1.6 0.7 2.8 0 10 C-0.7 2.8 -1.4 1.6 -8.8 0 C-1.4 -1.6 -0.7 -2.8 0 -10 Z" fill="#0A0A0A"/>
</g>
</svg>
